Coordinates
version=1
nRows=27
nColumns=12
inDegrees=yes

Units are S.I. units (second, meters, Newtons, ...)
Angles are in degrees

endheader
time	SC_y	SC_z	SC_x	AC_y	AC_z	AC_x	GH_y	GH_z	GH_yy	EL_x	PS_y
       0.0              -11.09          18.54          50.29          68.66         -14.12         0.9754         -167.3          24.92          -28.6          6.643          80.56
   0.01384              -11.09          18.55          50.29          68.66         -14.12         0.9781         -167.3          24.91         -28.59          6.653          80.57
   0.02767              -11.09          18.55          50.29          68.66         -14.12         0.9811         -167.3          24.91         -28.57          6.664          80.57
   0.04151              -11.09          18.55           50.3          68.66         -14.11         0.9842         -167.2           24.9         -28.55          6.675          80.57
   0.05535              -11.09          18.55           50.3          68.65         -14.11         0.9875         -167.2           24.9         -28.53          6.687          80.58
   0.06918              -11.09          18.55          50.31          68.65         -14.11         0.9911         -167.1          24.89         -28.51            6.7          80.58
   0.08302              -11.09          18.56          50.31          68.65          -14.1         0.9948         -167.0          24.89         -28.49          6.714          80.58
   0.09686              -11.09          18.56          50.32          68.64          -14.1         0.9989         -167.0          24.88         -28.47          6.729          80.59
    0.1107              -11.09          18.56          50.33          68.64          -14.1          1.003         -166.9          24.87         -28.44          6.744          80.59
    0.1245              -11.09          18.57          50.33          68.63         -14.09          1.008         -166.8          24.86         -28.42          6.761          80.59
    0.1384               -11.1          18.57          50.34          68.63         -14.09          1.013         -166.8          24.86         -28.39          6.779           80.6
    0.1522               -11.1          18.57          50.35          68.62         -14.08          1.018         -166.7          24.85         -28.36          6.799           80.6
     0.166               -11.1          18.58          50.36          68.62         -14.08          1.024         -166.6          24.84         -28.32           6.82          80.61
    0.1799               -11.1          18.58          50.36          68.61         -14.07           1.03         -166.5          24.83         -28.29          6.842          80.61
    0.1937               -11.1          18.59          50.37           68.6         -14.06          1.037         -166.4          24.82         -28.25          6.867          80.62
    0.2076               -11.1          18.59          50.38           68.6         -14.06          1.044         -166.3           24.8         -28.21          6.894          80.63
    0.2214               -11.1           18.6           50.4          68.59         -14.05          1.052         -166.2          24.79         -28.16          6.922          80.63
    0.2352               -11.1           18.6          50.41          68.58         -14.04          1.061         -166.0          24.78         -28.11          6.954          80.64
    0.2491               -11.1          18.61          50.42          68.57         -14.03          1.071         -165.9          24.76         -28.06          6.988          80.65
    0.2629               -11.1          18.62          50.44          68.56         -14.02          1.081         -165.7          24.74          -28.0          7.026          80.66
    0.2767               -11.1          18.63          50.45          68.55         -14.01          1.092         -165.6          24.72         -27.93          7.067          80.67
    0.2906              -11.11          18.64          50.47          68.54          -14.0          1.105         -165.4           24.7         -27.86          7.113          80.68
    0.3044              -11.11          18.65          50.49          68.53         -13.98          1.119         -165.2          24.68         -27.78          7.163          80.69
    0.3182              -11.11          18.66          50.51          68.51         -13.97          1.134         -164.9          24.65         -27.69          7.219          80.71
    0.3321              -11.11          18.67          50.54           68.5         -13.95          1.151         -164.7          24.63          -27.6          7.281          80.72
    0.3459              -11.11          18.68          50.57          68.48         -13.93           1.17         -164.4          24.59         -27.49           7.35          80.74
    0.3598              -11.12           18.7           50.6          68.46         -13.91          1.192         -164.1          24.56         -27.37          7.427          80.76
